PathFileType	4	(X/Y/Z)	Kaydara																																																																																																																									
DataRate	CameraRate	NumFrames	NumMarkers	Units	OrigDataRate	OrigDataStartFrame	OrigNumFrames																																																																																																																					
30	30	9	41	mm	30	310	354																																																																																																																					
Frame#	Time	SALE_LFHD			SALE_RFHD			SALE_LBHD			SALE_RBHD			SALE_LFTShould			SALE_RFTShould			SALE_LRRShould			SALE_RRRShould			SALE_T10			SALE_STRN			SALE_TRUN			SALE_LSHO			SALE_LUPA			SALE_LELB			SALE_LFRM			SALE_LWRA			SALE_LWRB			SALE_LFIN			SALE_RSHO			SALE_RUPA			SALE_RELB			SALE_RFRM			SALE_RWRB			SALE_RFIN			SALE_LFWT			SALE_RFWT			SALE_LBWT			SALE_RBWT			SALE_LTHI			SALE_LKNE			SALE_RWRA			SALE_LSHN			SALE_LANK			SALE_LHEE			SALE_LTOE			SALE_RTHI			SALE_RKNE			SALE_RSHN			SALE_RANK			SALE_RHEE			SALE_RTOE		
		X1	Y1	Z1	X2	Y2	Z2	X3	Y3	Z3	X4	Y4	Z4	X5	Y5	Z5	X6	Y6	Z6	X7	Y7	Z7	X8	Y8	Z8	X9	Y9	Z9	X10	Y10	Z10	X11	Y11	Z11	X12	Y12	Z12	X13	Y13	Z13	X14	Y14	Z14	X15	Y15	Z15	X16	Y16	Z16	X17	Y17	Z17	X18	Y18	Z18	X19	Y19	Z19	X20	Y20	Z20	X21	Y21	Z21	X22	Y22	Z22	X23	Y23	Z23	X24	Y24	Z24	X25	Y25	Z25	X26	Y26	Z26	X27	Y27	Z27	X28	Y28	Z28	X29	Y29	Z29	X30	Y30	Z30	X31	Y31	Z31	X32	Y32	Z32	X33	Y33	Z33	X34	Y34	Z34	X35	Y35	Z35	X36	Y36	Z36	X37	Y37	Z37	X38	Y38	Z38	X39	Y39	Z39	X40	Y40	Z40	X41	Y41	Z41
																																																																																																																												
310	10.31	241.57684	1454.00482	2026.7868	111.79808	1457.53738	2040.75607	231.67118	1554.1066	1940.04974	106.0727	1552.27768	1956.70105	228.37658	1318.2692	1858.88107	86.47787	1318.68484	1870.9433	214.50155	1382.18689	1752.82806	65.05994	1389.92676	1772.53098	129.51357	1234.10385	1687.61444	153.50469	1248.94875	1910.72052	150.92012	1163.92982	1953.47305	336.64467	1346.02783	1778.18085	368.97636	1129.4783	1750.22919	349.63692	1020.65659	1735.15594	383.15483	915.63499	1754.41452	337.4398	776.52359	1831.55396	391.46973	768.90732	1775.56488	398.59001	724.71085	1821.41754	-24.40914	1355.14969	1817.68951	-67.43951	1123.24303	1762.99408	-96.53916	1026.27274	1815.74814	-93.14945	911.78421	1818.53851	-110.79694	781.00204	1880.33859	-115.36157	750.11551	1940.48767	264.7612	919.69223	1916.80481	-13.06076	912.6873	1895.22491	222.54902	966.99387	1739.6666	41.89239	975.44174	1729.12704	265.83221	595.62214	1835.07614	240.36312	456.50906	1964.18686	-60.4564	798.69522	1934.13971	229.0007	269.58841	2019.94049	220.16516	81.56264	2028.01254	182.679	31.31477	1971.20422	184.34671	48.4946	2166.46683	6.95604	687.09091	1695.93307	29.29236	513.8842	1757.44476	98.1161	332.71809	1678.76495	67.94253	119.069	1532.53082	85.87026	37.66659	1631.40106	116.0671	82.49264	1447.91336
311	10.343	245.95791	1457.96799	2052.51221	116.10335	1462.89154	2066.0405	237.45081	1558.33618	1965.89279	111.75703	1557.70248	1981.97388	231.85322	1322.79129	1885.55191	89.7994	1325.3334	1896.67633	219.20988	1385.72266	1779.01123	70.03111	1395.70023	1797.38403	132.45782	1238.58604	1714.12643	155.3969	1255.33516	1937.0697	151.34024	1170.9906	1980.98358	340.67459	1348.68439	1805.46127	371.8959	1131.79527	1782.01355	352.08927	1022.92236	1768.50052	385.25776	918.43399	1788.54645	339.01192	779.76402	1865.91888	393.44898	771.9384	1810.25009	399.72954	727.23892	1855.94162	-20.5144	1363.16925	1842.37366	-62.34921	1132.52869	1784.54636	-91.67505	1034.67674	1835.12512	-89.84995	921.26915	1830.11276	-112.24931	786.91063	1881.13037	-118.33694	749.55582	1937.08313	265.11877	928.61778	1947.06512	-12.21017	913.84705	1925.05493	221.62687	973.79906	1769.55841	41.59021	977.18628	1758.69049	272.5342	604.93279	1860.09903	242.14392	461.91528	1982.23557	-62.18984	797.67586	1935.88821	229.62618	270.12354	2029.30389	220.93462	82.74813	2033.31375	184.55555	31.55492	1971.49002	183.5998	47.6722	2166.96808	11.78441	687.17133	1727.13379	33.39499	514.08188	1789.59656	100.30403	332.74891	1702.72903	64.65343	128.89984	1543.80127	84.79639	37.02915	1635.20691	111.00116	98.485	1456.36932
312	10.377	250.53047	1463.47733	2077.51877	120.71445	1470.02258	2091.03714	243.18995	1563.1044	1990.01923	117.49135	1564.07211	2006.04996	235.06533	1328.30811	1913.09891	92.70589	1332.74658	1922.94464	223.00657	1388.77289	1805.28351	74.30357	1400.75684	1822.52747	135.08212	1242.57996	1739.4342	157.02492	1262.83875	1963.99048	151.75747	1179.06792	2008.85147	343.93059	1351.95663	1833.01346	374.2804	1135.31029	1812.9631	353.83049	1026.55945	1799.99313	387.07661	922.28821	1821.98349	340.60764	784.65065	1901.58707	395.3159	776.11137	1846.18942	400.97996	731.49414	1892.27722	-17.06951	1371.4801	1867.59613	-59.09702	1143.61107	1805.80887	-88.38202	1044.55994	1852.6265	-87.42537	931.99249	1841.21597	-113.29086	795.12657	1882.68478	-120.74895	752.23495	1934.83292	265.71077	935.52742	1977.32834	-11.77621	916.49574	1953.46313	221.90722	979.01947	1799.52332	43.14056	979.42474	1786.9368	278.39283	612.12574	1879.93607	246.96003	463.755	1994.54437	-64.47324	800.51834	1938.92014	233.58841	270.09539	2035.12695	223.01121	82.98869	2034.18961	186.73189	31.5916	1971.33972	183.73766	47.07509	2167.01736	16.50911	685.44823	1760.20889	35.71391	512.56283	1827.95349	100.02247	330.96554	1732.75116	61.14816	140.16793	1557.98706	83.25392	36.19185	1639.70673	107.00071	117.45852	1469.02786
313	10.41	254.99493	1469.12933	2101.86722	125.45657	1477.5116	2115.79758	248.39241	1566.83716	2012.23434	122.83504	1569.74518	2028.93219	237.22221	1331.99936	1941.18805	94.68752	1336.99738	1949.83002	226.58178	1389.7908	1832.17133	77.88297	1403.19092	1847.88116	138.41403	1243.56308	1767.41272	158.18812	1267.65182	1991.78833	151.94971	1184.30336	2037.22778	346.95061	1353.20648	1861.75003	376.73721	1136.85135	1843.18909	356.37691	1028.04382	1830.38544	389.01947	923.46497	1855.20081	342.09541	788.18481	1938.49228	396.47346	777.81868	1883.04672	402.11132	734.63272	1930.33066	-14.24784	1376.08871	1892.79648	-56.95058	1151.30722	1826.1113	-87.5871	1050.59692	1868.78464	-87.01339	939.05258	1852.59354	-115.72909	801.13327	1886.9577	-123.40372	753.52654	1935.39597	266.18938	938.44307	2007.10617	-11.17586	917.65541	1978.59604	224.63234	981.32202	1829.00299	46.84953	979.77463	1813.38303	281.90735	616.83037	1897.65045	251.10723	463.4132	2006.69891	-68.01767	802.73209	1944.40628	235.67768	269.53968	2041.94427	223.58097	82.53698	2035.8049	187.40017	31.94357	1971.69495	182.96886	45.71617	2168.00827	20.45718	679.95384	1794.61624	34.94003	507.49569	1870.46249	95.01925	326.12328	1767.69302	57.0166	151.3504	1575.85449	81.14929	33.91574	1643.20038	105.89604	138.15687	1487.40707
314	10.443	258.66724	1473.65295	2126.15097	129.55913	1483.70041	2140.40192	252.52487	1568.73398	2033.85178	127.12595	1573.49304	2051.06583	238.83192	1331.65634	1969.25415	95.89942	1337.26379	1976.22971	230.10069	1388.79013	1859.57336	81.17002	1403.03085	1873.32047	142.37026	1242.37076	1794.86862	158.91398	1267.62833	2019.30115	151.67653	1184.18358	2064.5166	349.89632	1351.88843	1891.21429	379.60293	1135.42763	1873.34106	359.18472	1026.51138	1860.75455	391.06934	921.81335	1888.53729	341.76853	788.14751	1973.77457	397.6506	776.85738	1920.55161	403.09452	735.74722	1969.45587	-11.75877	1376.40594	1917.21939	-54.82016	1154.08371	1844.96201	-87.81363	1052.6342	1883.73215	-87.98144	941.47263	1864.04404	-118.72286	802.99644	1893.41064	-126.86201	752.69569	1939.24896	267.43526	939.076	2034.70459	-9.57671	915.5088	2002.59293	227.50734	981.94221	1855.97549	50.17003	976.67046	1837.65778	284.33395	620.70049	1916.74225	254.87808	463.88424	2020.49652	-72.22689	803.10905	1952.96799	237.69604	268.37667	2049.65317	223.49478	82.08728	2038.41019	187.29229	32.75659	1972.28256	182.13154	44.56488	2169.14261	23.76461	668.99918	1829.8024	26.04247	499.46262	1915.90439	83.821	318.63321	1807.5174	52.11528	163.06898	1598.7706	79.52539	31.66571	1649.16733	104.62073	160.53856	1514.06448
315	10.477	261.3726	1476.34842	2150.55725	132.56423	1487.56943	2164.95071	255.25732	1568.83682	2055.98282	130.18254	1575.16174	2073.54095	239.76044	1328.54218	1996.75171	96.90005	1335.04395	2000.59494	233.44826	1387.03613	1886.86508	83.95708	1401.57791	1897.99088	146.46508	1240.53658	1820.96634	159.08377	1263.86108	2045.33051	151.04867	1180.36568	2089.9762	352.5172	1349.28802	1921.14838	382.24861	1132.39616	1904.27322	362.20448	1023.25333	1892.07764	393.23555	918.59062	1922.62497	342.09366	787.05086	2010.0853	398.85483	774.83002	1958.98422	403.94852	735.3299	2008.77304	-9.72345	1373.9888	1939.72427	-51.87332	1153.15834	1862.55768	-87.68335	1051.43631	1898.01498	-88.53517	940.75203	1876.02356	-121.2035	801.94077	1901.62537	-131.21467	751.05812	1946.47736	268.65545	939.28329	2060.15747	-7.42646	911.09192	2025.00214	229.27483	981.70464	1880.51743	51.96601	970.92804	1859.04907	290.08482	623.70674	1936.90903	259.30134	464.43325	2034.85107	-76.596	800.65521	1962.68417	240.35418	267.31113	2057.54517	223.80398	80.92443	2038.83011	187.39201	33.13374	1973.31192	181.40873	44.08986	2169.69452	25.88595	653.52509	1865.48645	15.13857	491.84746	1961.69037	71.82044	311.1249	1852.07932	45.11345	174.0266	1630.81635	75.70292	32.12589	1661.57379	97.97989	183.11483	1549.25385
316	10.51	262.93329	1476.85883	2174.83734	134.4041	1488.9798	2189.60571	256.81372	1568.1955	2079.11591	131.92517	1575.58716	2097.27081	239.48734	1325.95474	2022.96967	97.05317	1332.53937	2022.83966	236.37201	1386.14471	1913.48312	86.41901	1400.56519	1921.15494	151.19382	1239.84177	1845.21057	158.24127	1259.99428	2069.3811	149.5139	1175.6736	2112.59735	354.57264	1347.56012	1950.83694	384.59251	1130.13084	1936.12091	365.41134	1020.41298	1924.85611	395.34439	916.49193	1957.60605	342.13608	786.7675	2046.38138	400.04173	773.61343	1997.0549	404.28596	735.46638	2047.51434	-8.18753	1371.7366	1960.39322	-47.91501	1151.36597	1879.50623	-86.33205	1049.68346	1912.80655	-87.44944	939.42253	1889.34204	-122.25356	800.45975	1912.16187	-135.55875	750.7518	1957.09106	267.66087	939.4101	2084.7998	-6.71335	908.07518	2043.75778	231.85284	981.50604	1904.08203	54.76333	966.0936	1877.77557	296.99503	626.287	1955.39536	264.09687	464.4965	2047.67136	-80.0737	797.99271	1974.71115	242.9047	266.46463	2063.99994	225.41439	80.37912	2039.4902	189.17479	33.07746	1972.71576	181.22593	43.92797	2169.64264	26.58361	642.14371	1902.05429	6.04371	488.47534	2009.02374	62.86304	307.61856	1900.79025	39.45304	185.53846	1670.64926	63.39931	40.14542	1693.32626	94.7249	197.72234	1592.61276
317	10.543	263.19565	1475.784	2198.75763	134.61451	1488.38043	2213.99536	257.14155	1567.64191	2103.49472	132.23673	1575.39932	2122.03186	238.56739	1325.56274	2047.95364	95.40033	1332.55585	2045.45059	238.82818	1386.90796	1938.88779	88.67098	1400.96588	1942.18445	156.1912	1240.82886	1867.13181	156.11147	1259.08798	2091.29028	146.21305	1174.52705	2133.61771	355.92377	1348.27179	1979.96658	386.62178	1130.60654	1968.44147	368.1041	1020.55824	1958.04977	397.20367	917.74139	1993.45688	341.56151	788.31253	2080.99991	401.18092	774.89906	2034.01871	403.97251	737.62421	2085.09262	-7.18488	1371.72775	1978.4494	-44.38113	1150.7225	1896.40289	-84.11091	1049.67148	1928.45718	-84.89445	939.41597	1904.75235	-121.73407	800.80658	1926.3031	-138.70941	752.94563	1971.61575	265.82375	940.06409	2107.84668	-7.44171	908.87268	2059.75494	236.05631	981.96396	1926.31226	59.49447	965.46371	1895.728	300.19566	628.14686	1970.96664	265.60387	464.54586	2059.26926	-82.03691	797.5486	1990.15945	243.72505	265.6616	2070.07599	226.01435	80.03922	2039.85519	189.76427	32.91948	1972.49863	180.97261	43.87768	2169.51202	24.47481	638.70285	1935.39917	-1.18256	490.91022	2057.32315	55.8617	308.00653	1953.68301	36.23944	190.75859	1721.25809	43.72241	47.46325	1745.24261	97.58595	199.41244	1644.15436
318	10.577	261.91351	1474.05792	2222.61398	133.0827	1486.58432	2237.97226	256.12959	1567.81235	2129.10828	131.16377	1575.35324	2147.46353	237.1987	1327.83249	2071.66534	95.04058	1334.11224	2062.37854	241.047	1389.77524	1963.39203	90.71705	1403.10013	1961.73859	161.23262	1243.58467	1888.23502	153.44239	1261.40114	2111.81305	142.41315	1176.64215	2153.60779	356.6795	1351.47552	2008.30429	388.51036	1133.60153	2000.61417	370.6292	1023.35617	1990.69107	398.84338	921.10435	2028.04214	340.65571	791.95068	2113.84705	402.17075	778.84789	2070.24612	402.84554	741.76521	2121.39877	-6.33632	1374.05304	1994.2482	-41.22284	1151.80786	1912.71255	-81.72647	1051.33438	1944.49707	-81.8789	940.8004	1921.94046	-119.86754	802.76192	1944.33273	-139.71483	756.62743	1990.03159	266.64415	940.38963	2127.93793	-6.58728	912.8614	2078.1076	238.65564	983.04451	1947.73895	62.63716	968.04428	1914.4191	297.87331	629.61102	1985.87387	263.23816	464.81853	2070.55435	-82.50199	799.94751	2009.72549	242.25775	265.04667	2075.75378	225.14507	80.47155	2040.46829	189.27464	32.99542	1972.43607	180.71091	43.3407	2169.21661	20.68645	638.68114	1968.88428	-5.8056	499.07207	2103.58673	50.12692	311.65649	2008.95477	33.18906	186.68848	1779.8999	22.94359	50.77204	1813.73322	100.16155	186.19825	1703.41629
